<?xml version="1.0" encoding="UTF-8" standalone="no"?>
<!DOCTYPE svg PUBLIC "-//W3C//DTD SVG 1.0//EN" "http://www.w3.org/TR/2001/PR-SVG-20010719/DTD/svg10.dtd">
<svg width="25cm" height="18cm" viewBox="139 79 482 342" xmlns="http://www.w3.org/2000/svg" xmlns:xlink="http://www.w3.org/1999/xlink">
  <defs/>
  <g id="Background">
    <polygon style="fill: #cbeacb; fill-opacity: 1; stroke-opacity: 1; stroke-width: 2; stroke: #cbeacb" fill-rule="evenodd" points="140,220 160,220 160,200 200,220 240,200 240,220 260,220 280,260 260,300 240,300 240,320 200,340 160,320 160,300 140,300 "/>
    <text font-size="22.5774" style="fill: #000000; fill-opacity: 1; stroke: none;text-anchor:middle;font-family:sans-serif;font-style:normal;font-weight:normal" x="200" y="267.816">
      <tspan x="200" y="267.816">Edit html</tspan>
    </text>
    <polygon style="fill: #cbeacb; fill-opacity: 1; stroke-opacity: 1; stroke-width: 2; stroke: #cbeacb" fill-rule="evenodd" points="280,220 460,220 480,260 460,300 280,300 300,260 "/>
    <text font-size="22.5774" style="fill: #000000; fill-opacity: 1; stroke: none;text-anchor:middle;font-family:sans-serif;font-style:normal;font-weight:normal" x="380" y="267.816">
      <tspan x="380" y="267.816">label content</tspan>
    </text>
    <polygon style="fill: #cbeacb; fill-opacity: 1; stroke-opacity: 1; stroke-width: 2; stroke: #cbeacb" fill-rule="evenodd" points="480,220 540,220 540,200 580,180 620,200 620,300 480,300 500,260 "/>
    <text font-size="22.5774" style="fill: #000000; fill-opacity: 1; stroke: none;text-anchor:middle;font-family:sans-serif;font-style:normal;font-weight:normal" x="560" y="253.705">
      <tspan x="560" y="253.705">Search/</tspan>
      <tspan x="560" y="281.927">Browse</tspan>
    </text>
    <polygon style="fill: #add8e6; fill-opacity: 1; stroke-opacity: 1; stroke-width: 2; stroke: #add8e6" fill-rule="evenodd" points="240,340 280,340 300,380 280,420 240,420 160,420 160,340 200,360 "/>
    <text font-size="22.5774" style="fill: #000000; fill-opacity: 1; stroke: none;text-anchor:middle;font-family:sans-serif;font-style:normal;font-weight:normal" x="230" y="387.816">
      <tspan x="230" y="387.816">Push to Git</tspan>
    </text>
    <polygon style="fill: #add8e6; fill-opacity: 1; stroke-opacity: 1; stroke-width: 2; stroke: #add8e6" fill-rule="evenodd" points="300,340 500,340 520,380 500,420 300,420 320,380 "/>
    <text font-size="22.5774" style="fill: #000000; fill-opacity: 1; stroke: none;text-anchor:middle;font-family:sans-serif;font-style:normal;font-weight:normal" x="410" y="387.816">
      <tspan x="410" y="387.816">Publish to Web</tspan>
    </text>
    <path style="fill: #cbeacb; fill-opacity: 1; stroke-opacity: 1; stroke-width: 2; stroke: #cbeacb" fill-rule="evenodd" d="M 160 160 C 160,120 240,80 380,80 C 520,80 620,120 620,160 C 620,200 620,180 620,180 C 620,180 580,160 580,160 C 580,160 540,180 540,180 C 540,180 540,160 540,160 C 540,160 500,100 380,100 C 260,100 240,160 240,160 C 240,160 240,180 240,180 C 240,180 200,200 200,200 C 200,200 166,181 160,180 C 154,179 160,200 160,160z"/>
  </g>
</svg>
